<svg width="28" height="28" viewBox="0 0 28 28" fill="none" xmlns="http://www.w3.org/2000/svg">
<path d="M14 0C6.26613 0 0 6.26613 0 14C0 21.7339 6.26613 28 14 28C21.7339 28 28 21.7339 28 14C28 6.26613 21.7339 0 14 0ZM19.2212 17.6694L18.0922 19.0806C18.0181 19.1733 17.9265 19.2504 17.8226 19.3076C17.7187 19.3649 17.6045 19.4011 17.4866 19.4142C17.3687 19.4273 17.2494 19.417 17.1355 19.384C17.0215 19.351 16.9152 19.2959 16.8226 19.2218L13.0403 16.415C12.776 16.2034 12.5627 15.9351 12.4162 15.6299C12.2696 15.3248 12.1935 14.9906 12.1935 14.652V5.87097C12.1935 5.63142 12.2887 5.40168 12.4581 5.23229C12.6275 5.0629 12.8572 4.96774 13.0968 4.96774H14.9032C15.1428 4.96774 15.3725 5.0629 15.5419 5.23229C15.7113 5.40168 15.8065 5.63142 15.8065 5.87097V14L19.0806 16.3992C19.1733 16.4733 19.2505 16.565 19.3077 16.669C19.3649 16.773 19.4011 16.8872 19.4141 17.0051C19.4272 17.1231 19.4169 17.2425 19.3838 17.3564C19.3507 17.4704 19.2954 17.5767 19.2212 17.6694Z" fill="#FD367E"/>
</svg>
