<svg width="187" height="187" viewBox="0 0 187 187" fill="none" xmlns="http://www.w3.org/2000/svg">
<path d="M93.5 0C41.8488 0 0 41.8488 0 93.5C0 145.151 41.8488 187 93.5 187C145.151 187 187 145.151 187 93.5C187 41.8488 145.151 0 93.5 0ZM139.345 118.044C141.117 119.816 141.117 122.681 139.345 124.453L124.415 139.345C122.643 141.117 119.778 141.117 118.006 139.345L93.5 114.613L68.9562 139.345C67.1843 141.117 64.3189 141.117 62.547 139.345L47.6548 124.415C45.8829 122.643 45.8829 119.778 47.6548 118.006L72.3871 93.5L47.6548 68.9562C45.8829 67.1843 45.8829 64.3189 47.6548 62.547L62.5847 47.6171C64.3567 45.8452 67.222 45.8452 68.994 47.6171L93.5 72.3871L118.044 47.6548C119.816 45.8829 122.681 45.8829 124.453 47.6548L139.383 62.5847C141.155 64.3567 141.155 67.222 139.383 68.994L114.613 93.5L139.345 118.044Z" fill="#FD367E"/>
</svg>
