<svg width="21" height="21" viewBox="0 0 21 21" fill="none" xmlns="http://www.w3.org/2000/svg">
<path d="M20.125 11.3568H0.875C0.391998 11.3568 0 10.9648 0 10.4818C0 9.99884 0.391998 9.60684 0.875 9.60684H20.125C20.608 9.60684 21 9.99884 21 10.4818C21 10.9648 20.608 11.3568 20.125 11.3568Z" fill="black"/>
<path d="M20.125 4.64844H0.875C0.391998 4.64844 0 4.25644 0 3.77344C0 3.29044 0.391998 2.89844 0.875 2.89844H20.125C20.608 2.89844 21 3.29044 21 3.77344C21 4.25644 20.608 4.64844 20.125 4.64844Z" fill="black"/>
<path d="M20.125 18.065H0.875C0.391998 18.065 0 17.673 0 17.19C0 16.707 0.391998 16.315 0.875 16.315H20.125C20.608 16.315 21 16.707 21 17.19C21 17.673 20.608 18.065 20.125 18.065Z" fill="black"/>
</svg>
