<svg width="68" height="52" viewBox="0 0 68 52" fill="none" xmlns="http://www.w3.org/2000/svg">
<g filter="url(#filter0_d)">
<path d="M53.5911 18.8076L48.2316 21.8007V20.0016C48.2316 17.791 46.3812 16 44.0974 16H22.1342C19.8504 16 18 17.791 18 20.0016V31.9984C18 34.209 19.8504 36 22.1342 36H44.0974C46.3812 36 48.2316 34.209 48.2316 31.9984V30.1993L53.5911 33.1924C54.658 33.7894 56 33.0391 56 31.8451V20.1468C56 18.9528 54.658 18.2106 53.5911 18.8076Z" fill="#FD367E"/>
</g>
<g filter="url(#filter1_d)">
<circle cx="22" cy="18" r="10" fill="#FD367E"/>
</g>
<path d="M20.3519 24V19.4568H16V16.5432H20.3519V12H23.6481V16.5432H28V19.4568H23.6481V24H20.3519Z" fill="#FCFCFC"/>
<defs>
<filter id="filter0_d" x="6" y="8" width="62" height="44" filterUnits="userSpaceOnUse" color-interpolation-filters="sRGB">
<feFlood flood-opacity="0" result="BackgroundImageFix"/>
<feColorMatrix in="SourceAlpha" type="matrix" values="0 0 0 0 0 0 0 0 0 0 0 0 0 0 0 0 0 0 127 0"/>
<feOffset dy="4"/>
<feGaussianBlur stdDeviation="6"/>
<feColorMatrix type="matrix" values="0 0 0 0 0 0 0 0 0 0 0 0 0 0 0 0 0 0 0.2 0"/>
<feBlend mode="normal" in2="BackgroundImageFix" result="effect1_dropShadow"/>
<feBlend mode="normal" in="SourceGraphic" in2="effect1_dropShadow" result="shape"/>
</filter>
<filter id="filter1_d" x="0" y="0" width="44" height="44" filterUnits="userSpaceOnUse" color-interpolation-filters="sRGB">
<feFlood flood-opacity="0" result="BackgroundImageFix"/>
<feColorMatrix in="SourceAlpha" type="matrix" values="0 0 0 0 0 0 0 0 0 0 0 0 0 0 0 0 0 0 127 0"/>
<feOffset dy="4"/>
<feGaussianBlur stdDeviation="6"/>
<feColorMatrix type="matrix" values="0 0 0 0 0 0 0 0 0 0 0 0 0 0 0 0 0 0 0.2 0"/>
<feBlend mode="normal" in2="BackgroundImageFix" result="effect1_dropShadow"/>
<feBlend mode="normal" in="SourceGraphic" in2="effect1_dropShadow" result="shape"/>
</filter>
</defs>
</svg>
