<svg width="56" height="45" viewBox="0 0 56 45" fill="none" xmlns="http://www.w3.org/2000/svg">
<path d="M53.5911 18.9178L48.2316 21.9415V20.124C48.2316 17.8909 46.3812 16.0815 44.0974 16.0815H22.1342C19.8504 16.0815 18 17.8909 18 20.124V32.2432C18 34.4763 19.8504 36.2856 22.1342 36.2856H44.0974C46.3812 36.2856 48.2316 34.4763 48.2316 32.2432V30.4257L53.5911 33.4494C54.658 34.0525 56 33.2945 56 32.0883V20.2707C56 19.0645 54.658 18.3147 53.5911 18.9178Z" fill="#FD367E"/>
<g filter="url(#filter0_d)">
<ellipse cx="22" cy="18.102" rx="10" ry="10.102" fill="#FD367E"/>
</g>
<path d="M20.352 24.1632V19.5737H16V16.6303H20.352V12.0408H23.6481V16.6303H28V19.5737H23.6481V24.1632H20.352Z" fill="#FCFCFC"/>
<defs>
<filter id="filter0_d" x="0" y="0" width="44" height="44.2041" filterUnits="userSpaceOnUse" color-interpolation-filters="sRGB">
<feFlood flood-opacity="0" result="BackgroundImageFix"/>
<feColorMatrix in="SourceAlpha" type="matrix" values="0 0 0 0 0 0 0 0 0 0 0 0 0 0 0 0 0 0 127 0"/>
<feOffset dy="4"/>
<feGaussianBlur stdDeviation="6"/>
<feColorMatrix type="matrix" values="0 0 0 0 0 0 0 0 0 0 0 0 0 0 0 0 0 0 0.2 0"/>
<feBlend mode="normal" in2="BackgroundImageFix" result="effect1_dropShadow"/>
<feBlend mode="normal" in="SourceGraphic" in2="effect1_dropShadow" result="shape"/>
</filter>
</defs>
</svg>
